#!OML:ASF H:\Dans Jumps\Project 1\Capture day 1\Session 1\subject.ASF
:FULLY-SPECIFIED
:DEGREES
277
root 0.482372 15.9995 -14.7816 17.3602 -1.12199 -1.8457
lowerback 12.2387 -0.16709 -0.727821
upperback 3.84286 -0.227325 2.23388
thorax -2.82332 -0.120838 2.77169
lowerneck -18.7015 1.13653 -1.17284
upperneck 16.1363 2.24314 -1.84092
head 8.09006 0.794902 -0.149241
rclavicle -1.78906e-015 2.5842e-015
rhumerus -39.1908 -21.7799 -68.4883
rradius 21.1062
rwrist 37.6585
rhand -19.2979 -26.892
rfingers 7.12502
rthumb 7.01759 -56.7557
lclavicle -1.78906e-015 2.5842e-015
lhumerus -38.3544 10.149 78.904
lradius 11.8943
lwrist -3.16049
lhand -24.5766 -4.38538
lfingers 7.12502
lthumb 1.92045 25.5857
rfemur -49.0112 -1.06841 20.7242
rtibia 59.0514
rfoot -30.1455 -10.5028
rtoes -0.585777
lfemur -48.7216 8.66637 -20.5872
ltibia 58.5068
lfoot -26.4836 14.9484
ltoes -10.658
278
root 0.482978 15.9713 -14.7802 17.8038 -1.05115 -1.83276
lowerback 12.4985 -0.192462 -0.739112
upperback 3.69754 -0.257748 2.25343
thorax -3.11482 -0.131786 2.80724
lowerneck -18.8701 1.13977 -1.17144
upperneck 15.9692 2.25184 -1.86841
head 8.06367 0.797504 -0.157082
rclavicle -8.94531e-015 -2.3059e-014
rhumerus -39.2761 -22.1331 -68.1802
rradius 20.9173
rwrist 38.0136
rhand -19.2636 -26.9045
rfingers 7.12502
rthumb 7.05071 -56.767
lclavicle -8.94531e-015 -2.3059e-014
lhumerus -38.5288 11.1686 78.1769
lradius 11.4694
lwrist -4.4783
lhand -24.5095 -4.47522
lfingers 7.12502
lthumb 1.98527 25.4953
rfemur -49.6669 -1.02488 20.7152
rtibia 59.338
rfoot -30.3131 -10.8005
rtoes -0.604381
lfemur -49.3879 8.4439 -20.6188
ltibia 58.7757
lfoot -26.5365 15.2548
ltoes -10.5473
279
root 0.48336 15.9432 -14.7775 18.2437 -0.971062 -1.83403
lowerback 12.7694 -0.216887 -0.737322
upperback 3.55162 -0.284827 2.28128
thorax -3.41342 -0.140907 2.84426
lowerneck -19.0416 1.14293 -1.16801
upperneck 15.8058 2.26102 -1.90119
head 8.03908 0.799845 -0.166943
rclavicle -3.57812e-015 1.8487e-014
rhumerus -39.33 -22.4991 -67.8783
rradius 20.7245
rwrist 38.3882
rhand -19.2041 -26.9322
rfingers 7.12502
rthumb 7.10817 -56.7928
lclavicle -3.57812e-015 1.8487e-014
lhumerus -38.6768 12.2838 77.3839
lradius 11.0311
lwrist -5.97433
lhand -24.4056 -4.55647
lfingers 7.12502
lthumb 2.08563 25.4131
rfemur -50.3051 -0.979215 20.7224
rtibia 59.6122
rfoot -30.474 -11.1048
rtoes -0.567609
lfemur -50.0434 8.22568 -20.6283
ltibia 59.0392
lfoot -26.5779 15.5488
ltoes -10.4427
280
root 0.484424 16.007 -14.7755 18.6748 -0.88223 -1.85453
lowerback 13.0546 -0.239558 -0.718496
upperback 3.40561 -0.306725 2.3179
thorax -3.72055 -0.147355 2.88076
lowerneck -19.2176 1.14491 -1.16127
upperneck 15.6514 2.26865 -1.93756
head 8.01832 0.801118 -0.178682
rclavicle 6.26172e-015 -1.94809e-014
rhumerus -39.3548 -22.885 -67.5796
rradius 20.5212
rwrist 38.8059
rhand -19.149 -26.9587
rfingers 7.12502
rthumb 7.16133 -56.8175
lclavicle 6.26172e-015 -1.94809e-014
lhumerus -38.8087 13.5003 76.518
lradius 10.5884
lwrist -7.64646
lhand -24.275 -4.68202
lfingers 7.12502
lthumb 2.21174 25.2863
rfemur -50.5487 -0.921772 20.755
rtibia 59.5002
rfoot -30.6225 -11.4174
rtoes -0.509066
lfemur -50.3171 8.00968 -20.6145
ltibia 58.933
lfoot -26.6026 15.8394
ltoes -10.3418
281
root 0.484259 15.9815 -14.7702 19.0941 -0.785199 -1.89109
lowerback 13.3537 -0.259915 -0.686781
upperback 3.25896 -0.322997 2.36237
thorax -4.0366 -0.150944 2.91806
lowerneck -19.3964 1.14232 -1.16496
upperneck 15.5106 2.27076 -1.96103
head 8.00221 0.800258 -0.18506
rclavicle 4.96962e-016 -5.1684e-015
rhumerus -39.351 -23.274 -67.2929
rradius 20.3121
rwrist 39.2564
rhand -19.1035 -26.9895
rfingers 7.12502
rthumb 7.20529 -56.8468
lclavicle 4.96962e-016 -5.1684e-015
lhumerus -38.9306 14.795 75.5956
lradius 10.1584
lwrist -9.4522
lhand -24.1036 -4.77513
lfingers 7.12502
lthumb 2.37731 25.1914
rfemur -51.1262 -0.863768 20.8003
rtibia 59.7338
rfoot -30.7602 -11.7184
rtoes -0.444892
lfemur -50.9261 7.80664 -20.5716
ltibia 59.1751
lfoot -26.6084 16.1147
ltoes -10.2361
282
root 0.483636 15.9562 -14.7632 19.5022 -0.682628 -1.93906
lowerback 13.6623 -0.27696 -0.651737
upperback 3.11418 -0.33349 2.41444
thorax -4.35651 -0.151637 2.96116
lowerneck -19.5805 1.13612 -1.17448
upperneck 15.3777 2.26778 -1.97359
head 7.9893 0.797615 -0.187452
rclavicle 6.26172e-015 -1.15295e-014
rhumerus -39.3101 -23.6722 -67.017
rradius 20.0911
rwrist 39.7468
rhand -19.075 -27.0101
rfingers 7.12502
rthumb 7.2328 -56.8665
lclavicle 6.26172e-015 -1.15295e-014
lhumerus -38.8111 15.1508 75.4749
lradius 9.74124
lwrist -10.0787
lhand -24.0987 -4.72593
lfingers 7.12502
lthumb 2.38204 25.2405
rfemur -51.6793 -0.796185 20.856
rtibia 59.9526
rfoot -30.881 -12.0049
rtoes -0.382414
lfemur -51.5152 7.61209 -20.51
ltibia 59.4101
lfoot -26.5925 16.3798
ltoes -10.1274
283
root 0.48239 15.9312 -14.7546 19.9013 -0.576358 -1.99003
lowerback 13.9761 -0.289704 -0.623401
upperback 2.97121 -0.338393 2.47137
thorax -4.67803 -0.149433 3.01283
lowerneck -19.7727 1.12505 -1.19048
upperneck 15.2525 2.25806 -1.97428
head 7.98004 0.79246 -0.185621
rclavicle -7.95139e-015 2.44505e-014
rhumerus -39.2292 -24.0682 -66.7626
rradius 19.8635
rwrist 40.2521
rhand -19.0611 -27.0301
rfingers 7.12502
rthumb 7.24615 -56.886
lclavicle -7.95139e-015 2.44505e-014
lhumerus -38.6388 15.5062 75.3705
lradius 9.34033
lwrist -10.7029
lhand -24.0837 -4.65727
lfingers 7.12502
lthumb 2.39653 25.309
rfemur -52.2832 -0.718697 20.9129
rtibia 60.3626
rfoot -31.1122 -12.3034
rtoes -0.334683
lfemur -52.1588 7.42443 -20.4391
ltibia 59.8459
lfoot -26.6874 16.6841
ltoes -10.0163
284
root 0.480457 15.9063 -14.7443 20.2918 -0.467473 -2.03738
lowerback 14.2946 -0.29787 -0.609794
upperback 2.83034 -0.338652 2.53188
thorax -5.0005 -0.144642 3.07638
lowerneck -19.9785 1.1103 -1.21287
upperneck 15.1336 2.24307 -1.96151
head 7.97482 0.785644 -0.178861
rclavicle -3.18055e-015 1.0138e-014
rhumerus -39.1034 -24.4518 -66.5385
rradius 19.6361
rwrist 40.7461
rhand -19.0582 -27.0332
rfingers 7.12502
rthumb 7.24895 -56.8891
lclavicle -3.18055e-015 1.0138e-014
lhumerus -38.41 15.863 75.2844
lradius 8.95742
lwrist -11.3088
lhand -24.061 -4.57349
lfingers 7.12502
lthumb 2.41841 25.3926
rfemur -52.8687 -0.632325 20.9632
rtibia 60.7641
rfoot -31.323 -12.5787
rtoes -0.278964
lfemur -52.7829 7.23908 -20.3651
ltibia 60.2725
lfoot -26.7636 16.9775
ltoes -9.90504
285
root 0.477807 15.8816 -14.7321 20.6755 -0.356919 -2.07507
lowerback 14.6125 -0.302236 -0.615544
upperback 2.69213 -0.336369 2.59344
thorax -5.32033 -0.138173 3.15205
lowerneck -20.1915 1.09294 -1.23425
upperneck 15.0091 2.2236 -1.94495
head 7.96882 0.777219 -0.171567
rclavicle 0 -2.8625e-014
rhumerus -38.9286 -24.823 -66.3485
rradius 19.4105
rwrist 41.2103
rhand -19.0567 -27.0182
rfingers 7.12502
rthumb 7.25046 -56.874
lclavicle 0 -2.8625e-014
lhumerus -38.1154 16.2236 75.2164
lradius 8.58135
lwrist -11.8916
lhand -24.0244 -4.50913
lfingers 7.12502
lthumb 2.45379 25.4565
rfemur -53.4385 -0.538746 21.0002
rtibia 61.1603
rfoot -31.5134 -12.8271
rtoes -0.206734
lfemur -53.3878 7.04979 -20.2934
ltibia 60.6896
lfoot -26.8267 17.2596
ltoes -9.80089
286
root 0.474484 15.8568 -14.718 21.0544 -0.246424 -2.09791
lowerback 14.9254 -0.302286 -0.643318
upperback 2.5558 -0.331774 2.65259
thorax -5.63602 -0.130007 3.23764
lowerneck -20.4083 1.07279 -1.25369
upperneck 14.8774 2.19893 -1.92401
head 7.96085 0.767005 -0.163807
rclavicle -1.07344e-014 1.19271e-015
rhumerus -38.7074 -25.1726 -66.204
rradius 19.1991
rwrist 41.6207
rhand -19.0564 -26.9971
rfingers 7.12502
rthumb 7.2507 -56.8529
lclavicle -1.07344e-014 1.19271e-015
lhumerus -37.7551 16.585 75.1655
lradius 8.21688
lwrist -12.4584
lhand -23.9874 -4.47534
lfingers 7.12502
lthumb 2.48953 25.4899
rfemur -53.9972 -0.438507 21.0177
rtibia 61.5546
rfoot -31.6838 -13.0517
rtoes -0.116656
lfemur -53.9753 6.85243 -20.2297
ltibia 61.0984
lfoot -26.8842 17.5305
ltoes -9.70568
287
root 0.47056 15.832 -14.7018 21.4298 -0.133966 -2.1054
lowerback 15.2338 -0.300284 -0.689743
upperback 2.41781 -0.327569 2.70897
thorax -5.95143 -0.121327 3.33141
lowerneck -20.6255 1.05179 -1.26863
upperneck 14.7367 2.1722 -1.90575
head 7.94988 0.755945 -0.157991
rclavicle -1.22253e-014 4.77083e-015
rhumerus -38.4436 -25.4912 -66.1084
rradius 19.0061
rwrist 41.9707
rhand -19.0632 -26.9772
rfingers 7.12502
rthumb 7.24412 -56.8332
lclavicle -1.22253e-014 4.77083e-015
lhumerus -37.3311 16.9511 75.1328
lradius 7.86369
lwrist -13.0297
lhand -23.9355 -4.43329
lfingers 7.12502
lthumb 2.53963 25.5313
rfemur -54.5454 -0.33564 21.0163
rtibia 61.9496
rfoot -31.8411 -13.2469
rtoes -0.00313513
lfemur -54.5457 6.64352 -20.1737
ltibia 61.5007
lfoot -26.9469 17.7897
ltoes -9.61968
288
root 0.46609 15.8068 -14.6834 21.8 -0.0228938 -2.09594
lowerback 15.5353 -0.294937 -0.752703
upperback 2.2784 -0.322266 2.75867
thorax -6.26519 -0.111405 3.42764
lowerneck -20.8428 1.02853 -1.27544
upperneck 14.5893 2.14084 -1.89232
head 7.93674 0.742775 -0.155742
rclavicle -1.98785e-016 5.96354e-016
rhumerus -38.1412 -25.7947 -66.0595
rradius 18.8283
rwrist 42.2768
rhand -19.0824 -26.9748
rfingers 7.12502
rthumb 7.22566 -56.8315
lclavicle -1.98785e-016 5.96354e-016
lhumerus -36.8439 17.316 75.1163
lradius 7.52273
lwrist -13.6286
lhand -23.877 -4.38595
lfingers 7.12502
lthumb 2.59612 25.578
rfemur -55.0814 -0.228364 20.9931
rtibia 62.3476
rfoot -31.9903 -13.4132
rtoes 0.117835
lfemur -55.0955 6.42285 -20.1278
ltibia 61.8988
lfoot -27.02 18.0404
ltoes -9.53303
